<?xml version="1.0" encoding="utf-8"?>
<!-- Generator: Adobe Illustrator 21.0.2, SVG Export Plug-In . SVG Version: 6.00 Build 0)  -->
<svg version="1.1" id="Layer_1" xmlns="http://www.w3.org/2000/svg" xmlns:xlink="http://www.w3.org/1999/xlink" x="0px" y="0px"
	 viewBox="0 0 1656 216" style="enable-background:new 0 0 1656 216;" xml:space="preserve">
<style type="text/css">
	.st0{fill:none;}
	.st1{fill:#AA1A20;}
	.st2{fill:#ED1C24;}
	.st3{fill:#F47D31;}
	.st4{fill:#FBB040;}
</style>
<path class="st0" d="M1374.9,171.5c0.1,0,0.1,0,0.2,0l0-0.2L1374.9,171.5z"/>
<path class="st0" d="M1440.3,120.4c0-0.1,0-0.1,0-0.2l-0.2,0L1440.3,120.4z"/>
<path class="st0" d="M1440.3,106.5c0,0,0-0.1,0-0.1l-0.1,0.1L1440.3,106.5z"/>
<path class="st0" d="M1388.8,171.6c0.1,0,0.1,0,0.2,0l-0.2-0.2L1388.8,171.6z"/>
<polygon class="st0" points="1323.9,120.1 1323.9,120.1 1323.9,120.1 "/>
<path class="st1" d="M1435.9,90c-2.9-6.5-6.9-12.7-12.3-18c-5.4-5.4-11.5-9.5-18.1-12.3l0,30.3L1435.9,90z"/>
<g>
	<path class="st2" d="M1404.7,59.3c-14.4-6-30.7-6-45.1,0l22.5,22.6L1404.7,59.3z"/>
	<path class="st2" d="M1436.2,136.1c2.1-5.1,3.5-10.3,4.1-15.7l-0.2-0.2l0.2,0c0.5-4.6,0.5-9.2,0-13.8l-0.1,0l0.1-0.1
		c-0.6-5.3-2-10.6-4.1-15.7l-22.7,22.6L1436.2,136.1z"/>
</g>
<g>
	<path class="st3" d="M1358.8,59.6c-6.6,2.9-12.7,6.9-18.1,12.3c-5.3,5.3-9.4,11.4-12.2,17.9l30.3,0L1358.8,59.6z"/>
	<path class="st3" d="M1405.3,167.2c6.6-2.9,12.9-7,18.3-12.4c5.4-5.4,9.5-11.6,12.3-18.1l-30.6,0L1405.3,167.2z"/>
</g>
<g>
	<g>
		<g>
			<g>
				<path d="M1432.8,62.4c-28.2-28-73.8-27.9-101.8,0.3c-22.8,22.9-26.9,57.3-12.6,84.4l5.6-5.6c-11.6-24-7.5-53.6,12.4-73.5
					c25.1-25.3,66-25.4,91.3-0.3c25.3,25.1,25.4,66,0.3,91.3c-19.7,19.8-49,24.2-72.9,13.1l-5.6,5.6c27.1,13.8,61.2,9.3,83.8-13.4
					C1461.2,136,1461,90.4,1432.8,62.4z"/>
			</g>
		</g>
	</g>
	<path d="M1178.5,45.3h33.7l37.7,63.6c5.3,9,11.4,23.2,11.4,23.2h0.4c0,0-1.5-14.7-1.5-23.2V45.3h33.3v136.2h-33.5l-37.9-63.4
		c-5.3-9-11.4-23.2-11.4-23.2h-0.4c0,0,1.5,14.7,1.5,23.2v63.4h-33.3V45.3z"/>
	<path d="M1458,45.1h35.1l17.2,85.3c1.7,8.4,1.7,14.3,1.7,14.3h0.4c0,0,0.2-5.9,2.3-14.3l21-85.3h26.9l20.4,85.3
		c2.1,8.4,2.3,14.3,2.3,14.3h0.4c0,0,0-5.9,1.7-14.3l18.7-85.3h34.5L1606,181.5h-37.2l-17.2-68.9c-2.1-8.8-2.7-16-2.7-16h-0.4
		c0,0-0.6,7.2-2.7,16l-17.2,68.9h-37.6L1458,45.1z"/>
	<g>
		<path d="M17.2,45.3h47.1c24.4,0,42,15.9,42,41.1c0,25.4-17.6,41.7-42,41.7H30.5v53.5H17.2V45.3z M62.5,116c18.2,0,30-11,30-29.6
			c0-18.4-11.8-29.1-29.8-29.1H30.5V116H62.5z"/>
		<path d="M134.6,45.3h40.3c14,0,20.1,1.4,25.6,3.7C213.3,54.6,221,67.6,221,84c0,18.4-10.5,32.6-25.8,36.8v0.4c0,0,1.4,1.7,3.5,5.4
			l29.6,54.8h-15.3l-30.8-57.3H148v57.3h-13.4V45.3z M180.3,112.1c16.5,0,26.9-10.7,26.9-27.7c0-11.2-4.5-19.6-12.4-23.8
			c-4.1-2.1-8.9-3.3-19.4-3.3H148v54.8H180.3z"/>
		<path d="M317.8,43c38.6,0,69.4,30.4,69.4,69.6c0,39.9-30.8,71.3-69.4,71.3c-38.5,0-69.4-31.4-69.4-71.3
			C248.4,73.4,279.2,43,317.8,43z M317.8,171.4c30.6,0,55.4-25.6,55.4-58.9c0-32.5-24.8-57.2-55.4-57.2c-30.8,0-55.4,24.6-55.4,57.2
			C262.4,145.9,287,171.4,317.8,171.4z"/>
		<path d="M416.7,156.1c0,0,14.1,14.9,35.6,14.9c14.9,0,27.1-8.9,27.1-23.6c0-34.3-68-25.6-68-67.8c0-19.6,17.2-36.6,42.4-36.6
			c23.6,0,36.4,13.2,36.4,13.2l-6.6,11.2c0,0-12-11.6-29.8-11.6c-17.4,0-28.7,11.4-28.7,23.4c0,32.4,68,23.1,68,67.8
			c0,20.3-15.7,36.8-41.3,36.8c-27.9,0-43.2-17.4-43.2-17.4L416.7,156.1z"/>
		<path d="M526,45.3H573c24.4,0,42,15.9,42,41.1c0,25.4-17.6,41.7-42,41.7h-33.7v53.5H526V45.3z M571.3,116c18.2,0,30-11,30-29.6
			c0-18.4-11.8-29.1-29.8-29.1h-32.2V116H571.3z"/>
		<path d="M643.4,45.3h76.7v12h-63.4v49.6h51.7v12h-51.7v50.6h66.8v12h-80.2V45.3z"/>
		<path d="M753.1,45.3h40.3c14,0,20.1,1.4,25.6,3.7c12.8,5.6,20.5,18.6,20.5,35.1c0,18.4-10.5,32.6-25.8,36.8v0.4
			c0,0,1.4,1.7,3.5,5.4l29.6,54.8h-15.3l-30.8-57.3h-34.3v57.3h-13.4V45.3z M798.8,112.1c16.5,0,26.9-10.7,26.9-27.7
			c0-11.2-4.5-19.6-12.4-23.8c-4.1-2.1-8.9-3.3-19.4-3.3h-27.5v54.8H798.8z"/>
		<path d="M877.3,45.3h13.4v136.2h-13.4V45.3z"/>
		<path d="M964.4,57.3h-49v-12h111.2v12h-48.8v124.2h-13.4V57.3z"/>
		<path d="M1089.3,123l-45.9-77.7h15.3l28.9,49.4c4.1,7,8.3,16.3,8.3,16.3h0.4c0,0,4.1-9.1,8.3-16.3l28.9-49.4h15.1l-45.7,77.7v58.5
			h-13.6V123z"/>
	</g>
</g>
<g>
	<path class="st4" d="M1328.1,90.6c-3.9,9.3-5.3,19.5-4.2,29.4h0l0,0c0.6,5.4,2,10.7,4.1,15.7l22.7-22.6L1328.1,90.6z"/>
	<path class="st4" d="M1359.3,167.4c7.1,2.8,14.8,4.4,22.8,4.4c8,0,15.7-1.5,22.7-4.3l-22.7-22.8L1359.3,167.4z"/>
</g>
</svg>
